<svg xmlns="http://www.w3.org/2000/svg" xmlns:xlink="http://www.w3.org/1999/xlink" viewBox="0,0,256,256" width="144px" height="144px" fill-rule="nonzero"><g fill="none" fill-rule="nonzero" stroke="none" stroke-width="1" stroke-linecap="butt" stroke-linejoin="miter" stroke-miterlimit="10" stroke-dasharray="" stroke-dashoffset="0" font-family="none" font-weight="none" font-size="none" text-anchor="none" style="mix-blend-mode: normal"><g transform="scale(5.33333,5.33333)"><path d="M6,10c0,-2.2 1.8,-4 4,-4h28c2.2,0 4,1.8 4,4v28c0,2.2 -1.8,4 -4,4h-28c-2.2,0 -4,-1.8 -4,-4z" fill="#bdc2dd"></path><path d="M9,9v30h30v-30zM25,31h-8v-14h3v11.6h5zM32.2,23.1l-0.9,-0.1c-0.8,0 -1.3,0.3 -1.5,1v7h-2.8v-10.6h2.6l0.1,1.1c0.4,-0.9 1,-1.3 1.8,-1.3c0.3,0 0.6,0 0.8,0.1z" fill="#1d4256"></path></g></g></svg>