<svg xmlns="http://www.w3.org/2000/svg" xmlns:xlink="http://www.w3.org/1999/xlink" viewBox="0,0,256,256" width="100px" height="100px" fill-rule="nonzero"><g fill="none" fill-rule="nonzero" stroke="none" stroke-width="1" stroke-linecap="butt" stroke-linejoin="miter" stroke-miterlimit="10" stroke-dasharray="" stroke-dashoffset="0" font-family="none" font-weight="none" font-size="none" text-anchor="none" style="mix-blend-mode: normal"><g transform="scale(2.56,2.56)"><path d="M21.434,75.715c7.144,7.413 23.253,-2.401 38.685,-16.862c15.432,-14.461 21.553,-31.927 16.073,-37.541c-6.51,-6.67 -22.925,1.445 -38.357,15.905c-15.432,14.46 -22.868,31.787 -16.401,38.498z" fill="#8e9cb3"></path><path d="M23.459,77.748c0,0 2.794,4.387 8.202,4.329c5.408,-0.058 18.165,-3.473 37.982,-26.009c19.817,-22.536 9.468,-31.79 9.468,-31.79l-1.739,-1.285c0,0 5.151,13.941 -16.757,35.275c-23.78,24.633 -37.156,19.48 -37.156,19.48z" fill="#a2b4cc"></path><path d="M75.12,28.48c-0.16,2.99 -1.5,6.79 -3.81,11l-1.647,3.235l-1.273,-1.255c0.2,-2.63 -0.38,-4.84 -1.84,-6.33l8.375,-9.471c0.41,0.52 -0.065,2.151 0.195,2.821z" fill="#f9e65c"></path><path d="M35.12,70.23l-4.03,4.5c-3.36,0.78 -6.04,0.46 -7.63,-1.13c-0.32,-0.32 -0.59,-0.68 -0.8,-1.09l8.61,-5.85c0.47,1.16 1.23,2.13 2.28,2.82c0.47,0.32 1,0.56 1.57,0.75z" fill="#ae5ca3"></path><path d="M31.27,66.66l-8.61,5.85c-1.36,-2.51 -0.78,-6.58 1.36,-11.45l7.39,-2.17c-0.88,3.02 -0.95,5.71 -0.14,7.77z" fill="#c26dab"></path><path d="M36.48,49.14c-2.47,3.36 -4.19,6.72 -5.07,9.75l-7.39,2.17c1.77,-4.02 4.62,-8.59 8.33,-13.26z" fill="#78a1d1"></path><path d="M47.41,38.44c-2.69,1.88 -5.36,4.2 -7.81,6.89c-1.14,1.25 -2.19,2.53 -3.12,3.81l-4.13,-1.34c1.47,-1.84 3.06,-3.69 4.78,-5.54c2.36,-2.55 5.01,-5.1 7.95,-7.66c0.45,-0.39 0.9,-0.77 1.35,-1.14z" fill="#60bd91"></path><path d="M63.325,23.363l-4.194,9.914c-3.521,0.513 -7.646,2.319 -11.723,5.163l-1.081,-5.484c5.726,-3.876 12.144,-8.362 16.998,-9.593z" fill="#8cc78c"></path><path d="M51.389,53.007l-0.971,0.651l-0.027,0.025l-0.522,0.353l-0.643,0.436l0.829,-0.931l-0.233,-0.074l0.333,-0.097l0.009,-0.011l0.114,-0.248l0.035,0.148l-0.01,0.003l0.012,0.052z" fill="#a2b4cc" opacity="0.3"></path><path d="M59.132,33.277l-3.448,7.735c-2.13,0.546 -4.601,1.853 -7.042,3.743l-1.233,-6.314c4.076,-2.845 8.202,-4.651 11.723,-5.164z" fill="#a6e6a7"></path><path d="M66.547,35.129l-5.908,6.599c-0.154,-0.148 -0.326,-0.283 -0.506,-0.406c-1.086,-0.712 -2.638,-0.79 -4.449,-0.31l3.448,-7.735c2.55,-0.368 4.785,-0.054 6.448,1.048c0.358,0.238 0.68,0.503 0.967,0.804z" fill="#e7f598"></path><path d="M68.388,41.458l-6.962,4.728c0.395,-1.907 0.156,-3.481 -0.786,-4.457l5.908,-6.599c1.461,1.489 2.045,3.701 1.84,6.328z" fill="#fef598"></path><path d="M68.39,41.46c-0.1,1.25 -0.39,2.6 -0.85,4.01c-0.82,1.17 -1.7,2.36 -2.65,3.55l-5.14,1.52c0.85,-1.55 1.42,-3.03 1.68,-4.35z" fill="#fae973"></path><path d="M64.89,49.02c-1.9,2.41 -4.03,4.85 -6.37,7.26l-2.33,-0.75c1.47,-1.66 2.67,-3.36 3.55,-4.99h0.01z" fill="#f9cf75"></path><path d="M58.52,56.28c-0.36,0.37 -0.73,0.75 -1.11,1.13c-1.76,1.76 -3.54,3.42 -5.32,4.95l-0.49,-2.5c1.43,-1.1 2.84,-2.39 4.18,-3.86c0.14,-0.15 0.28,-0.31 0.41,-0.47z" fill="#fbb97f"></path><path d="M45.78,63.19l-2.65,5.93l-0.34,0.77c-0.52,0.16 -1.03,0.29 -1.53,0.4c-2.31,0.51 -4.41,0.52 -6.14,-0.06l5.88,-6.58h0.01c1.27,0.41 2.93,0.22 4.77,-0.46z" fill="#f27e97"></path><path d="M40.995,63.651l-5.879,6.583c-0.563,-0.19 -1.096,-0.434 -1.571,-0.755c-1.049,-0.693 -1.804,-1.658 -2.271,-2.82l7.597,-5.153c0.227,0.739 0.647,1.331 1.274,1.746c0.256,0.17 0.547,0.305 0.85,0.399z" fill="#d476b9"></path><path d="M38.871,61.506l-7.597,5.153c-0.817,-2.056 -0.747,-4.752 0.133,-7.768l7.974,-2.35c-0.713,1.937 -0.911,3.669 -0.51,4.965z" fill="#d485ba"></path><path d="M42.454,51.078c-1.405,1.886 -2.436,3.758 -3.073,5.464l-7.974,2.35c0.887,-3.036 2.606,-6.395 5.07,-9.755z" fill="#9dc4e8"></path><path d="M47.409,38.44l1.233,6.314c-1.42,1.088 -2.815,2.373 -4.13,3.815c-0.756,0.831 -1.446,1.666 -2.059,2.509l-5.977,-1.941c0.932,-1.278 1.983,-2.556 3.126,-3.809c2.449,-2.693 5.114,-5.013 7.807,-6.888z" fill="#84d6af"></path><path d="M51.389,53.007l-0.971,0.651l-0.027,0.025l-0.522,0.353l-0.643,0.436l0.829,-0.931l-0.233,-0.074l0.333,-0.097l0.009,-0.011l0.114,-0.248l0.035,0.148l-0.01,0.003l0.012,0.052z" fill="#d3dff1" opacity="0.3"></path><path d="M49.822,53.467l-10.44,3.076c0.637,-1.706 1.667,-3.578 3.073,-5.464z" fill="#c1ddf1"></path><path d="M48.642,44.754l1.636,8.356l-0.115,0.248l-0.008,0.011l-0.334,0.097l-7.368,-2.388c0.612,-0.844 1.303,-1.678 2.059,-2.509c1.316,-1.441 2.711,-2.726 4.13,-3.815z" fill="#aae6c8"></path><path d="M60.639,41.728l-10.328,11.523l-0.033,-0.14l5.406,-12.099c1.811,-0.48 3.363,-0.402 4.449,0.31c0.18,0.123 0.352,0.258 0.506,0.406z" fill="#edf5bf"></path><path d="M61.425,46.185l-10.018,6.808l-0.018,0.013l-1.073,0.307l-0.012,-0.052l0.01,-0.002l-0.002,-0.009l10.328,-11.522c0.941,0.976 1.181,2.55 0.785,4.457z" fill="#fff9b8"></path><path d="M61.425,46.185c-0.252,1.321 -0.824,2.8 -1.68,4.354l-0.01,0.002l-8.328,2.451z" fill="#fef6aa"></path><path d="M59.735,50.542c-0.873,1.623 -2.073,3.323 -3.542,4.985l-5.776,-1.868l0.971,-0.651l0.018,-0.013z" fill="#f9dea2"></path><path d="M56.194,55.527c-0.135,0.161 -0.27,0.321 -0.418,0.476c-1.331,1.464 -2.747,2.753 -4.175,3.853l-1.21,-6.172l0.027,-0.025z" fill="#fdd4b2"></path><path d="M50.391,53.683l1.21,6.172c-1.985,1.534 -3.996,2.678 -5.819,3.336l4.087,-9.156z" fill="#f5b0b6"></path><path d="M49.869,54.036l-4.087,9.156c-1.839,0.68 -3.503,0.868 -4.777,0.458l8.22,-9.177z" fill="#f2a0b2"></path><path d="M49.226,54.472l-8.22,9.177l-0.01,0.002c-0.303,-0.095 -0.594,-0.229 -0.85,-0.399c-0.627,-0.415 -1.047,-1.007 -1.274,-1.746z" fill="#e6a3ce"></path><path d="M51.389,53.007l-0.971,0.651l-0.027,0.025l-0.522,0.353l-0.643,0.436l0.829,-0.931l-0.233,-0.074l0.333,-0.097l0.009,-0.011l0.114,-0.248l0.035,0.148l-0.01,0.003l0.012,0.052z" fill="#ffffff" opacity="0.3"></path><path d="M41.26,70.29c-3.74,2.23 -7.22,3.76 -10.17,4.44l4.03,-4.5c1.73,0.58 3.83,0.57 6.14,0.06z" fill="#ee4267"></path><path d="M52.09,62.36c-3.03,2.62 -6.06,4.89 -8.96,6.76l2.65,-5.93c1.82,-0.66 3.84,-1.8 5.82,-3.33z" fill="#f27c7c"></path><path d="M50.055,53.541l-0.83,0.931l-10.354,7.034c-0.401,-1.297 -0.203,-3.029 0.51,-4.964l10.44,-3.076z" fill="#e8acd5"></path><path d="M74.925,25.659l-8.379,9.47c-0.287,-0.301 -0.608,-0.566 -0.967,-0.805c-1.663,-1.102 -3.898,-1.416 -6.448,-1.048l4.194,-9.914c4.414,-1.128 7.475,-1.817 9.446,-0.511c0.524,0.347 1.767,2.309 2.154,2.808z" fill="#dce775"></path><path d="M55.684,41.012l-5.406,12.099l-1.636,-8.356c2.442,-1.89 4.912,-3.197 7.042,-3.743z" fill="#beebbf"></path><ellipse cx="2.16423" cy="67.72945" transform="rotate(-43.139)" rx="10.648" ry="5.063" fill="#d3dff1"></ellipse><path d="M41.177,56.156c0,0 5.843,0.549 10.712,-5.244c4.869,-5.793 4.292,-9.242 4.292,-9.242l1.574,1.322c0,0 2.213,4.802 -4.098,10.335c-6.311,5.533 -9.985,4.921 -9.985,4.921z" fill="#a2b4cc"></path><path d="M71.624,55.055l3.523,-4.978c0,0 6.165,9.161 6.495,14.886c0.33,5.725 -2.147,8.842 -3.523,10.063c0.46,-3.527 -0.936,-9.602 -2.367,-12.475c-1.431,-2.872 -4.128,-7.496 -4.128,-7.496z" fill="#d3dff1"></path><path d="M56.906,69.776c0,0 10.396,7.289 20.466,4.803c-1.931,6.663 -9.945,6.325 -16.278,3.87c-6.333,-2.455 -9.089,-4.99 -9.089,-4.99z" fill="#8e9cb3"></path><path d="M62.844,64.55l8.917,10.982c0,0 -0.138,1.149 -0.661,1.607c-0.523,0.458 -1.651,0.44 -1.651,0.44l-8.834,-10.909z" fill="#a2b4cc"></path><path d="M29.279,22.148l19.693,24.815c0,0 -0.11,0.844 -0.798,1.358c-0.688,0.514 -1.706,0.238 -1.706,0.238l-21.184,-26.411z" fill="#a2b4cc"></path><path d="M21.752,23.363c0,0 -1.139,5.082 2.872,12.967c4.011,7.885 5.619,9.218 5.619,9.218l-3.627,4.882c0,0 -5.742,-6.915 -7.968,-15.019c-2.226,-8.104 1.208,-11.267 3.104,-12.048z" fill="#a2b4cc"></path><path d="M21.752,22.852c0,0 9.889,-6.127 32.862,13.102c6.709,5.567 13.321,13.879 13.321,13.879l3.688,-5.182c0,0 -10.778,-13.211 -23.747,-21.358c-6.363,-4.073 -17.85,-8.202 -22.593,-4.734z" fill="#d3dff1"></path><path d="M80.133,42.129c3.615,-7.919 3.666,-14.22 0.144,-17.742l-3.822,-3.822c-1.741,-1.742 -4.134,-2.625 -7.108,-2.625c-4.824,0 -11.338,2.52 -18.349,7.095c-3.408,-2.332 -6.787,-4.26 -10.002,-5.68c-7.89,-3.482 -14.1,-3.45 -17.029,0.079l-4.279,4.845c-0.107,0.117 -0.215,0.233 -0.314,0.356l-0.052,0.059c-0.014,0.016 -0.019,0.036 -0.031,0.053c-1.184,1.524 -1.791,3.472 -1.791,5.819c0,5.114 2.926,11.969 8.242,19.367c-2.036,2.991 -3.741,5.949 -5.034,8.779c-3.615,7.919 -3.666,14.22 -0.144,17.742l3.822,3.822c1.74,1.741 4.133,2.624 7.109,2.625c5.464,0 12.818,-3.165 20.444,-8.534c2.288,1.394 4.535,2.589 6.684,3.537c4.011,1.771 7.591,2.657 10.588,2.657c2.854,0 5.181,-0.805 6.846,-2.414c0.275,-0.266 0.519,-0.554 0.749,-0.853c0.008,-0.008 0.02,-0.012 0.027,-0.021l3.368,-3.986c1.603,-2.087 1.916,-3.998 1.917,-6.594c0,-4.431 -2.284,-10.339 -6.414,-16.686c1.771,-2.683 3.266,-5.332 4.429,-7.878zM69.346,19.939c2.426,0 4.341,0.687 5.694,2.039l1.793,1.793c1.411,3.254 0.781,8.068 -1.887,13.912c-0.952,2.083 -2.133,4.24 -3.51,6.429c-0.437,-0.548 -0.879,-1.095 -1.335,-1.64c1.179,-1.919 2.199,-3.81 3.026,-5.62c2.922,-6.398 3.233,-11.434 0.854,-13.813c-1.062,-1.062 -2.62,-1.6 -4.634,-1.6c-3.927,0 -9.354,2.059 -15.292,5.791c-0.43,-0.323 -0.86,-0.64 -1.29,-0.952c6.425,-4.089 12.289,-6.339 16.581,-6.339zM63.149,35.017c-2.68,-2.592 -5.451,-4.987 -8.237,-7.136c5.65,-3.504 10.763,-5.441 14.433,-5.441c1.738,0 3.06,0.439 3.927,1.307c2.067,2.068 1.683,6.693 -1.057,12.69c-0.769,1.686 -1.715,3.446 -2.8,5.234c-1.938,-2.261 -4.029,-4.491 -6.266,-6.654zM24.726,20.084c2.634,-3.172 8.417,-3.103 15.865,0.185c6.967,3.077 14.731,8.57 21.863,15.467c3.094,2.993 5.918,6.107 8.412,9.262c-0.879,1.351 -1.83,2.711 -2.849,4.073c-2.5,-3.15 -5.318,-6.26 -8.408,-9.248c-7.215,-6.977 -15.083,-12.539 -22.154,-15.662c-5.977,-2.638 -10.994,-3.306 -14.554,-2.009zM22.27,23.523c0.789,-0.421 1.682,-0.711 2.673,-0.871l11.579,14.343c-2.373,2.388 -4.581,4.846 -6.591,7.323c-5.089,-7.141 -7.891,-13.709 -7.891,-18.558c0,-0.796 0.08,-1.545 0.23,-2.237zM42.937,44.941c-3.673,4.167 -4.931,8.771 -2.911,10.791l2.049,2.049c0.65,0.65 1.562,0.979 2.666,0.979c0.781,0 1.66,-0.165 2.609,-0.496c2.171,-0.757 4.498,-2.306 6.553,-4.361c2.056,-2.055 3.604,-4.382 4.361,-6.553c0.8,-2.291 0.628,-4.165 -0.482,-5.275l-2.049,-2.049c-1.875,-1.875 -5.911,-0.979 -9.884,2.154l-3.605,-4.466c2.161,-2.021 4.387,-3.917 6.626,-5.638c3.39,2.47 6.784,5.311 10.046,8.466c2.34,2.263 4.523,4.596 6.53,6.962c-2.452,3.255 -5.261,6.476 -8.363,9.578c-10.468,10.465 -22.286,17.497 -29.409,17.497c-1.74,-0.001 -3.062,-0.44 -3.928,-1.307c-2.068,-2.067 -1.684,-6.693 1.057,-12.69c2.895,-6.342 8.064,-13.451 14.565,-20.061zM49.492,47.219c0.064,-0.25 0.006,-0.519 -0.156,-0.719l-2.86,-3.543c3.457,-2.718 7.097,-3.678 8.55,-2.225c1.771,1.771 -0.005,6.54 -3.879,10.414c-3.874,3.874 -8.643,5.65 -10.414,3.879c-1.596,-1.596 -0.34,-5.623 2.842,-9.295l2.654,3.287c0.153,0.191 0.391,0.306 0.637,0.306c0.003,0 0.006,0 0.009,0c1.348,-0.015 2.253,-0.741 2.617,-2.104zM57.074,42.781c0.812,0.812 0.901,2.357 0.245,4.239c-0.708,2.031 -2.173,4.224 -4.124,6.175c-1.951,1.951 -4.144,3.416 -6.175,4.124c-1.883,0.657 -3.428,0.566 -4.239,-0.245l-0.386,-0.386c0.1,0.006 0.193,0.023 0.296,0.023c0.781,0 1.659,-0.165 2.609,-0.496c2.17,-0.757 4.497,-2.306 6.553,-4.361c3.22,-3.22 4.987,-6.857 4.839,-9.454zM41.613,36.934l-0.947,-1.173c1.978,-1.846 4.014,-3.594 6.057,-5.195c0.437,0.297 0.873,0.583 1.311,0.893c-2.17,1.681 -4.326,3.519 -6.421,5.475zM39.407,34.202l-9.164,-11.35c2.066,0.4 4.344,1.136 6.807,2.222c2.559,1.13 5.227,2.592 7.93,4.324c-1.879,1.498 -3.75,3.108 -5.573,4.804zM28.773,22.622l19.726,24.434c-0.248,0.836 -0.73,1.23 -1.549,1.266l-20.829,-25.8c0.828,-0.048 1.716,-0.011 2.652,0.1zM21.979,75.04c-2.89,-2.89 -2.694,-8.394 0.549,-15.498c3.051,-6.677 8.461,-14.11 15.258,-20.981l0.949,1.176c-6.62,6.714 -11.888,13.958 -14.842,20.429c-2.923,6.399 -3.234,11.434 -0.854,13.813c1.061,1.061 2.62,1.599 4.636,1.6c7.37,0 19.472,-7.149 30.113,-17.791c3.076,-3.076 5.863,-6.269 8.309,-9.497c0.441,0.533 0.877,1.066 1.3,1.602c-2.412,3.143 -5.17,6.284 -8.195,9.309c-11.163,11.163 -23.539,18.377 -31.529,18.377c-1.481,-0.001 -2.779,-0.254 -3.896,-0.741zM18.5,30.565c0,-2.157 0.554,-3.929 1.641,-5.289l0.329,-0.373c0.083,-0.089 0.159,-0.182 0.247,-0.267c0.132,-0.128 0.276,-0.242 0.418,-0.358c-0.058,0.478 -0.095,0.97 -0.095,1.482c0,5.108 2.926,11.969 8.239,19.366c-1.038,1.31 -2.019,2.623 -2.937,3.932c-5.061,-7.117 -7.842,-13.652 -7.842,-18.493zM31.495,80.901c-2.426,-0.001 -4.342,-0.687 -5.694,-2.039l-0.517,-0.517c0.747,0.149 1.54,0.233 2.39,0.233c8.242,0 20.895,-7.328 32.235,-18.67c4.749,-4.749 8.85,-9.785 12,-14.683c0.006,-0.009 0.013,-0.017 0.018,-0.027c1.553,-2.417 2.879,-4.802 3.929,-7.1c2.324,-5.091 3.143,-9.472 2.471,-12.835l0.536,0.536c2.89,2.89 2.694,8.394 -0.549,15.498c-3.108,6.804 -8.663,14.394 -15.643,21.372c-11.074,11.076 -23.311,18.232 -31.176,18.232zM77.342,73.743c-1.487,0.789 -3.351,1.123 -5.549,0.986c-0.03,-0.003 -0.054,0.007 -0.082,0.009l-8.115,-10.178c0.162,-0.16 0.327,-0.313 0.489,-0.475c2.72,-2.72 5.229,-5.534 7.473,-8.365c3.876,6.046 6.022,11.62 6.022,15.78c-0.001,0.803 -0.086,1.547 -0.238,2.243zM60.685,67.317l4.782,6.001c-0.944,-0.33 -1.907,-0.695 -2.898,-1.133c-1.52,-0.671 -3.101,-1.475 -4.71,-2.384c0.945,-0.797 1.887,-1.629 2.826,-2.484zM61.424,66.64c0.486,-0.452 0.969,-0.915 1.452,-1.381l8.373,10.503c-0.163,0.785 -0.618,1.215 -1.459,1.377zM59.028,76.99c-1.993,-0.88 -4.075,-1.98 -6.197,-3.253c1.398,-1.013 2.801,-2.101 4.203,-3.254c1.752,1.003 3.476,1.886 5.129,2.616c1.503,0.664 2.969,1.213 4.356,1.631c0.027,0.008 0.054,0.009 0.081,0.012l2.477,3.108c0.154,0.194 0.389,0.306 0.633,0.306c0.041,0 0.082,-0.003 0.123,-0.009c1.373,-0.219 2.186,-0.989 2.415,-2.29c0.007,-0.037 -0.006,-0.075 -0.004,-0.113c0.169,0.005 0.341,0.016 0.507,0.016c1.576,0 2.98,-0.256 4.208,-0.745c-0.369,0.929 -0.899,1.738 -1.598,2.414c-3.1,3 -8.901,2.842 -16.333,-0.439zM81.119,66.694c-0.001,2.438 -0.273,4.113 -1.695,5.966l-1.109,1.312c0.169,-0.77 0.263,-1.59 0.264,-2.473c0,-4.419 -2.258,-10.299 -6.363,-16.624c1.022,-1.322 1.983,-2.645 2.88,-3.963c3.877,6.046 6.023,11.624 6.023,15.782z" fill="#a2b4cc"></path></g></g></svg>