<svg xmlns="http://www.w3.org/2000/svg" xmlns:xlink="http://www.w3.org/1999/xlink" viewBox="0,0,256,256" width="144px" height="144px" fill-rule="nonzero"><g fill="none" fill-rule="nonzero" stroke="none" stroke-width="1" stroke-linecap="butt" stroke-linejoin="miter" stroke-miterlimit="10" stroke-dasharray="" stroke-dashoffset="0" font-family="none" font-weight="none" font-size="none" text-anchor="none" style="mix-blend-mode: normal"><g transform="scale(5.33333,5.33333)"><path d="M6,10c0,-2.209 1.791,-4 4,-4h28c2.209,0 4,1.791 4,4v28c0,2.209 -1.791,4 -4,4h-28c-2.209,0 -4,-1.791 -4,-4z" fill="#03a9f4"></path><path d="M20.016,19.174h-2.002v4.434h1.973c0.547,0 0.97,-0.179 1.27,-0.537c0.3,-0.358 0.449,-0.879 0.449,-1.563c0,-0.71 -0.153,-1.274 -0.459,-1.694c-0.306,-0.42 -0.717,-0.633 -1.231,-0.64z" fill="#124058"></path><path d="M9,9v30h30v-30zM23.365,24.789c-0.826,0.808 -1.972,1.211 -3.437,1.211h-1.914v5h-2.871v-14.219h4.844c1.406,0 2.528,0.437 3.364,1.309c0.836,0.872 1.255,2.005 1.255,3.398c0,1.393 -0.414,2.493 -1.241,3.301zM32.682,30.336c-0.709,0.573 -1.641,0.859 -2.793,0.859c-0.775,0 -1.459,-0.151 -2.051,-0.454c-0.592,-0.303 -1.057,-0.725 -1.392,-1.265c-0.335,-0.54 -0.503,-1.123 -0.503,-1.748h2.627c0.014,0.481 0.125,0.843 0.337,1.084c0.212,0.241 0.558,0.361 1.04,0.361c0.742,0 1.113,-0.335 1.113,-1.006c0,-0.234 -0.112,-0.451 -0.337,-0.649c-0.225,-0.198 -0.723,-0.466 -1.498,-0.805c-1.139,-0.462 -1.922,-0.94 -2.349,-1.436c-0.427,-0.496 -0.64,-1.11 -0.64,-1.846c0,-0.925 0.334,-1.688 1.001,-2.29c0.667,-0.602 1.552,-0.903 2.651,-0.903c1.158,0 2.086,0.3 2.783,0.898c0.697,0.598 1.045,1.403 1.045,2.412h-2.764c0,-0.859 -0.357,-1.289 -1.074,-1.289c-0.293,0 -0.533,0.091 -0.723,0.273c-0.19,0.182 -0.283,0.437 -0.283,0.762c0,0.234 0.104,0.441 0.313,0.62c0.209,0.179 0.699,0.435 1.475,0.767c1.127,0.417 1.922,0.881 2.388,1.392c0.466,0.511 0.698,1.174 0.698,1.987c0,0.945 -0.355,1.703 -1.064,2.276z" fill="#124058"></path></g></g></svg>