<svg xmlns="http://www.w3.org/2000/svg" xmlns:xlink="http://www.w3.org/1999/xlink" viewBox="0,0,256,256" width="144px" height="144px" fill-rule="nonzero"><g fill="none" fill-rule="nonzero" stroke="none" stroke-width="1" stroke-linecap="butt" stroke-linejoin="miter" stroke-miterlimit="10" stroke-dasharray="" stroke-dashoffset="0" font-family="none" font-weight="none" font-size="none" text-anchor="none" style="mix-blend-mode: normal"><g transform="scale(5.33333,5.33333)"><path d="M5,10c0,-2.209 1.791,-4 4,-4h28c2.209,0 4,1.791 4,4v28c0,2.209 -1.791,4 -4,4h-28c-2.209,0 -4,-1.791 -4,-4z" fill="#e72869"></path><path d="M26.283,22.553c-0.508,0 -0.879,0.205 -1.113,0.615c-0.234,0.41 -0.352,1.14 -0.352,2.188v0.732c0,1.042 0.111,1.77 0.332,2.183c0.221,0.413 0.596,0.62 1.123,0.62c0.547,0 0.961,-0.244 1.24,-0.732v-4.824c-0.273,-0.522 -0.683,-0.782 -1.23,-0.782z" fill="#51132f"></path><path d="M8,9v30h30v-30zM20.141,31h-2.871v-14.219h2.871zM30.297,31h-2.51l-0.127,-1.074c-0.566,0.847 -1.295,1.27 -2.188,1.27c-1.107,0 -1.952,-0.423 -2.534,-1.27c-0.582,-0.847 -0.88,-2.09 -0.894,-3.73v-0.801c0,-1.731 0.293,-3.024 0.879,-3.877c0.586,-0.853 1.439,-1.279 2.559,-1.279c0.814,0 1.49,0.352 2.031,1.055v-5.294h2.783v15z" fill="#51132f"></path></g></g></svg>