<svg xmlns="http://www.w3.org/2000/svg" viewBox="0 0 140.44 87.14"><defs><style>.cls-1{fill:#ccbeb0;}.cls-2{fill:#f8f1e8;}</style></defs><g id="Layer_2" data-name="Layer 2"><g id="Layer_1-2" data-name="Layer 1"><path class="cls-1" d="M71.8,38.22H50.71a14.54,14.54,0,0,0-1.18-4.75,11.25,11.25,0,0,0-2.61-3.68,11.68,11.68,0,0,0-4-2.4,15.83,15.83,0,0,0-5.34-.84A15,15,0,0,0,28.7,29.1a15.55,15.55,0,0,0-5.46,7.29,31.49,31.49,0,0,0-1.85,11.4,31.93,31.93,0,0,0,1.89,11.77,14.72,14.72,0,0,0,5.48,7.1A15.32,15.32,0,0,0,37.4,69a17.1,17.1,0,0,0,5.16-.73,11.76,11.76,0,0,0,4-2.12,11.16,11.16,0,0,0,2.75-3.34,13.5,13.5,0,0,0,1.44-4.43L58.16,50l13.64,8.6a28.48,28.48,0,0,1-2.73,9.9,32,32,0,0,1-6.67,9.27,32.4,32.4,0,0,1-10.68,6.83A39.08,39.08,0,0,1,37,87.14,39.07,39.07,0,0,1,18,82.61,32.61,32.61,0,0,1,4.84,69.3Q0,60.51,0,47.79T4.94,26.24A33,33,0,0,1,18.25,13,38.76,38.76,0,0,1,37,8.45a43,43,0,0,1,13.35,2A32.57,32.57,0,0,1,61,16.21a28.9,28.9,0,0,1,7.4,9.33c1.1,2.18,10.86,4.23,10.86,4.23Z"/><path class="cls-1" d="M81.23,86.09V9.5l7.45-8.45L102,9.5V69.34h31l7.46,8.3L133,86.09Z"/><path class="cls-2" d="M79.26,29.77H58.16A14.72,14.72,0,0,0,57,25a11.11,11.11,0,0,0-6.64-6.08A15.89,15.89,0,0,0,45,18.1a15,15,0,0,0-8.84,2.54,15.5,15.5,0,0,0-5.46,7.3,31.22,31.22,0,0,0-1.86,11.4A31.84,31.84,0,0,0,30.73,51.1a14.76,14.76,0,0,0,5.48,7.11,15.31,15.31,0,0,0,8.64,2.37A16.79,16.79,0,0,0,50,59.85a11.74,11.74,0,0,0,4-2.11,11.05,11.05,0,0,0,2.75-3.35A13.42,13.42,0,0,0,58.16,50l21.1.15A28.43,28.43,0,0,1,76.53,60,32,32,0,0,1,59.17,76.1,39.08,39.08,0,0,1,44.4,78.68a39,39,0,0,1-18.9-4.52A32.61,32.61,0,0,1,12.3,60.85Q7.46,52.06,7.45,39.34t4.94-21.56A33.13,33.13,0,0,1,25.7,4.51,38.79,38.79,0,0,1,44.4,0,43,43,0,0,1,57.75,2a32.29,32.29,0,0,1,10.7,5.78,28.9,28.9,0,0,1,7.4,9.33A34.13,34.13,0,0,1,79.26,29.77Z"/><path class="cls-2" d="M88.68,77.64V1.05h20.79V60.88h31V77.64Z"/></g></g></svg>